<?xml version="1.0" encoding="utf-8"?>
<!-- Generator: Adobe Illustrator 16.0.0, SVG Export Plug-In . SVG Version: 6.00 Build 0)  -->
<!DOCTYPE svg PUBLIC "-//W3C//DTD SVG 1.1//EN" "http://www.w3.org/Graphics/SVG/1.1/DTD/svg11.dtd">
<svg version="1.1" id="Layer_1" xmlns="http://www.w3.org/2000/svg" xmlns:xlink="http://www.w3.org/1999/xlink" x="0px" y="0px"
	 width="60px" height="60px" viewBox="0 0 60 60" enable-background="new 0 0 60 60" xml:space="preserve">
<g>
	<path fill="#064E89" d="M30.619,35.43V22.808c0-1.857-1.485-3.342-3.403-3.342H13.354v11.695h-1.856v7.55h1.856v0.123
		c0,2.352,1.918,4.27,4.27,4.27h5.321C27.215,43.104,30.619,39.7,30.619,35.43z M20.78,40.629c-1.546,0-2.784-1.238-2.784-2.784
		c0-0.558,0.186-1.053,0.433-1.486c-0.62-0.742-0.99-1.669-0.99-2.722l0,0c-1.052-0.434-1.795-1.424-1.795-2.6
		c0-1.547,1.237-2.784,2.785-2.784c0.99,0,1.794,0.495,2.351,1.237c0.31-0.062,0.557-0.124,0.866-0.124
		c0.681,0,1.362,0.187,1.918,0.495c0.496-0.495,1.176-0.804,1.918-0.804c1.547,0,2.785,1.237,2.785,2.784
		c0,1.424-1.114,2.599-2.538,2.723c-0.309,1.238-1.113,2.228-2.228,2.785c0,0.124,0.062,0.248,0.062,0.433
		C23.626,39.391,22.327,40.629,20.78,40.629z"/>
	<path fill="#064E89" d="M20.78,35.059c1.176,0,2.166,0.682,2.599,1.733c0.805-0.434,1.485-1.238,1.733-2.167
		c-1.362-0.185-2.352-1.359-2.352-2.722c0-0.558,0.186-1.053,0.433-1.484c-0.433-0.187-0.99-0.309-1.485-0.309
		c-0.186,0-0.371,0-0.557,0.061c0.124,0.311,0.186,0.619,0.186,0.929c0,1.546-1.237,2.783-2.785,2.783c-0.124,0-0.248,0-0.371-0.062
		c0.062,0.743,0.309,1.486,0.743,2.042C19.356,35.368,20.038,35.059,20.78,35.059z"/>
	<path fill="#064E89" d="M30,2.82c-15.408,0-27.846,12.438-27.846,27.846S14.592,58.512,30,58.512s27.846-12.438,27.846-27.846
		S45.408,2.82,30,2.82z M30,56.222c-7.796,0-14.789-3.465-19.492-8.91V31.1h-4.27v9.22C5,37.35,4.32,34.069,4.32,30.666
		C4.32,16.558,15.83,5.11,30,5.11s25.68,11.447,25.68,25.556S44.17,56.222,30,56.222z"/>
	<path fill="#064E89" d="M46.708,26.829C45.16,16.805,38.292,9.565,30.247,9.565c-5.568,0-10.52,3.526-13.551,8.911h10.582
		c2.414,0,4.394,1.918,4.394,4.331v3.403c3.217-0.744,6.621-2.846,7.982-2.537c1.609,0.309,1.362,4.764,2.785,4.764
		c0.125,0,0.186,0,0.248,0c0.186-0.061,1.361-0.989,2.475,0.682c0.495,0.742,0.743,2.289,0.434,4.084
		c-0.434,2.104-1.485,3.466-2.352,3.775l-0.619,0.246l-0.186,0.62c-2.042,6.683-6.807,11.014-12.19,11.014
		c-3.464,0-6.621-1.795-8.972-4.765h-3.217c2.908,4.455,7.24,7.363,12.128,7.363c6.374,0,12.066-4.825,14.542-12.313
		c1.609-0.929,2.846-2.971,3.342-5.446C48.688,30.79,48.131,28.129,46.708,26.829z"/>
</g>
</svg>
