<?xml version="1.0" encoding="utf-8"?>
<!-- Generator: Adobe Illustrator 16.0.0, SVG Export Plug-In . SVG Version: 6.00 Build 0)  -->
<!DOCTYPE svg PUBLIC "-//W3C//DTD SVG 1.1//EN" "http://www.w3.org/Graphics/SVG/1.1/DTD/svg11.dtd">
<svg version="1.1" id="Layer_1" xmlns="http://www.w3.org/2000/svg" xmlns:xlink="http://www.w3.org/1999/xlink" x="0px" y="0px"
	 width="60px" height="60px" viewBox="0 0 60 60" enable-background="new 0 0 60 60" xml:space="preserve">
<g>
	<path fill="#064E89" d="M45.348,28h3.373H49v-2h-3.621c2.552,0,4.375-3.586,4.375-6.469c0-3.699-3.009-6.796-6.709-6.796
		s-6.709,3.143-6.709,6.841c0,2.88,1.823,6.424,4.375,6.424H25.884c2.737,0,4.749-3.482,4.749-6.469
		c0-3.605-2.935-6.627-6.542-6.627c-3.607,0-6.542,3.064-6.542,6.672c0,2.986,2.011,6.424,4.75,6.424H2v-0.186V28h19.789
		c-2.475,0-4.24,3.239-4.24,6.038c0,3.606,2.935,6.497,6.542,6.497c3.607,0,6.542-2.871,6.542-6.478c0-2.798-1.765-6.058-4.24-6.058
		h14.351c-2.475,0-4.24,3.239-4.24,6.038c0,3.606,2.935,6.497,6.542,6.497c3.607,0,6.542-2.871,6.542-6.478
		C49.587,31.26,47.822,28,45.348,28z M37.343,19.356c0-3.145,2.558-5.703,5.703-5.703c3.145,0,5.703,2.559,5.703,5.703
		s-2.558,5.703-5.703,5.703C39.901,25.06,37.343,22.501,37.343,19.356z M29.626,33.95c0,3.052-2.482,5.534-5.535,5.534
		c-3.052,0-5.535-2.482-5.535-5.534c0-3.053,2.483-5.536,5.535-5.536C27.144,28.414,29.626,30.897,29.626,33.95z"/>
	<path fill="#064E89" d="M49.754,32.287c-4.516,0-8.191,3.674-8.191,8.19c0,4.518,3.675,8.192,8.191,8.192
		c4.517,0,8.192-3.675,8.192-8.192C57.946,35.961,54.271,32.287,49.754,32.287z M57.002,37.822
		c-0.653-0.862-1.611-1.594-2.774-2.124c-0.514-1.059-1.193-1.928-1.982-2.524C54.445,33.926,56.202,35.645,57.002,37.822z
		 M54.577,38.231c-0.876-0.21-1.869-0.357-2.925-0.439c-0.068-0.874-0.17-1.702-0.306-2.438c0.916,0.13,1.771,0.372,2.537,0.702
		C54.184,36.713,54.421,37.445,54.577,38.231z M54.519,36.361c1.383,0.739,2.386,1.79,2.775,2.996
		c-0.419-0.334-1.037-0.632-1.842-0.888c-0.121-0.037-0.245-0.073-0.372-0.108C54.953,37.651,54.762,36.981,54.519,36.361z
		 M54.795,40.478c0,0.596-0.045,1.177-0.13,1.734c-0.843,0.217-1.849,0.384-2.98,0.475c0.045-0.722,0.069-1.466,0.069-2.209
		s-0.023-1.487-0.069-2.207c1.132,0.09,2.137,0.258,2.98,0.474C54.75,39.303,54.795,39.882,54.795,40.478z M49.754,42.762
		c-0.503,0-0.988-0.015-1.456-0.043c-0.045-0.692-0.07-1.44-0.07-2.241c0-0.8,0.025-1.549,0.07-2.241
		c0.467-0.026,0.952-0.042,1.456-0.042c0.504,0,0.99,0.016,1.457,0.042c0.045,0.692,0.07,1.441,0.07,2.241
		c0,0.801-0.025,1.549-0.07,2.241C50.744,42.747,50.259,42.762,49.754,42.762z M51.177,43.194c-0.075,0.943-0.188,1.771-0.322,2.467
		c-0.359,0.035-0.726,0.054-1.1,0.054c-0.374,0-0.739-0.019-1.099-0.054c-0.134-0.696-0.247-1.523-0.322-2.467
		c0.465,0.026,0.94,0.04,1.421,0.04C50.237,43.234,50.712,43.221,51.177,43.194z M44.714,40.478c0-0.596,0.045-1.175,0.13-1.733
		c0.843-0.216,1.849-0.384,2.98-0.474c-0.045,0.72-0.069,1.464-0.069,2.207s0.023,1.487,0.069,2.209
		c-1.132-0.091-2.137-0.258-2.98-0.475C44.76,41.654,44.714,41.073,44.714,40.478z M48.333,37.762
		c0.076-0.944,0.188-1.771,0.322-2.468c0.36-0.034,0.726-0.054,1.099-0.054c0.375,0,0.741,0.02,1.1,0.054
		c0.134,0.696,0.247,1.523,0.322,2.468c-0.465-0.027-0.939-0.04-1.422-0.04C49.273,37.722,48.798,37.734,48.333,37.762z
		 M51.249,34.864c-0.188-0.857-0.425-1.56-0.712-2.012c1.2,0.288,2.26,1.227,3.023,2.57C52.845,35.16,52.068,34.971,51.249,34.864z
		 M50.754,34.813c-0.328-0.028-0.661-0.044-1-0.044c-0.338,0-0.67,0.016-0.999,0.044c0.301-1.323,0.682-2.053,0.999-2.053
		C50.073,32.76,50.453,33.489,50.754,34.813z M48.262,34.864c-0.82,0.106-1.597,0.296-2.312,0.559
		c0.763-1.344,1.824-2.282,3.024-2.57C48.687,33.305,48.448,34.007,48.262,34.864z M48.165,35.354
		c-0.136,0.736-0.238,1.564-0.307,2.438c-1.057,0.082-2.048,0.229-2.926,0.439c0.156-0.786,0.394-1.519,0.695-2.176
		C46.393,35.726,47.249,35.483,48.165,35.354z M44.429,38.361c-0.126,0.035-0.25,0.071-0.37,0.108
		c-0.806,0.256-1.423,0.554-1.843,0.888c0.39-1.206,1.392-2.257,2.775-2.996C44.748,36.981,44.558,37.651,44.429,38.361z
		 M44.348,38.882c-0.069,0.517-0.106,1.05-0.106,1.596c0,0.547,0.037,1.079,0.106,1.596c-1.457-0.441-2.312-1.034-2.312-1.596
		C42.036,39.917,42.891,39.324,44.348,38.882z M44.059,42.484c0.12,0.039,0.244,0.075,0.37,0.111
		c0.128,0.708,0.318,1.379,0.562,1.999c-1.383-0.738-2.385-1.79-2.775-2.995C42.636,41.932,43.253,42.23,44.059,42.484z
		 M44.933,42.726c0.877,0.209,1.869,0.357,2.926,0.438c0.068,0.874,0.17,1.702,0.307,2.44c-0.917-0.131-1.772-0.373-2.538-0.704
		C45.326,44.242,45.089,43.512,44.933,42.726z M48.262,46.091c0.186,0.859,0.425,1.56,0.712,2.013
		c-1.2-0.287-2.261-1.227-3.024-2.57C46.665,45.795,47.442,45.985,48.262,46.091z M48.756,46.145
		c0.328,0.028,0.661,0.044,0.999,0.044c0.339,0,0.671-0.016,1-0.044c-0.301,1.323-0.681,2.053-1,2.053
		C49.438,48.197,49.057,47.468,48.756,46.145z M51.249,46.091c0.819-0.105,1.597-0.296,2.312-0.558
		c-0.763,1.344-1.824,2.283-3.023,2.57C50.824,47.65,51.061,46.95,51.249,46.091z M51.346,45.604
		c0.135-0.738,0.238-1.566,0.306-2.44c1.057-0.08,2.049-0.229,2.925-0.438c-0.156,0.786-0.393,1.517-0.694,2.174
		C53.117,45.23,52.261,45.473,51.346,45.604z M55.08,42.596c0.126-0.036,0.251-0.072,0.372-0.111
		c0.805-0.254,1.422-0.553,1.842-0.885c-0.389,1.205-1.392,2.257-2.775,2.995C54.762,43.975,54.953,43.304,55.08,42.596z
		 M55.163,42.073c0.069-0.517,0.105-1.049,0.105-1.596c0-0.546-0.037-1.079-0.105-1.596c1.457,0.442,2.311,1.035,2.311,1.596
		C57.474,41.039,56.619,41.632,55.163,42.073z M47.264,33.174c-0.788,0.597-1.468,1.466-1.982,2.524
		c-1.163,0.53-2.122,1.262-2.774,2.124C43.308,35.645,45.064,33.926,47.264,33.174z M42.507,43.135
		c0.653,0.861,1.611,1.592,2.774,2.122c0.514,1.06,1.194,1.93,1.982,2.525C45.064,47.029,43.308,45.313,42.507,43.135z
		 M52.246,47.782c0.789-0.596,1.468-1.466,1.982-2.525c1.163-0.53,2.122-1.261,2.774-2.122
		C56.202,45.313,54.445,47.029,52.246,47.782z"/>
</g>
</svg>
