<?xml version="1.0" encoding="utf-8"?>
<!-- Generator: Adobe Illustrator 17.0.0, SVG Export Plug-In . SVG Version: 6.00 Build 0)  -->
<!DOCTYPE svg PUBLIC "-//W3C//DTD SVG 1.1//EN" "http://www.w3.org/Graphics/SVG/1.1/DTD/svg11.dtd">
<svg version="1.1" id="Layer_1" xmlns="http://www.w3.org/2000/svg" xmlns:xlink="http://www.w3.org/1999/xlink" x="0px" y="0px"
	 width="216px" height="216px" viewBox="0 0 216 216" enable-background="new 0 0 216 216" xml:space="preserve">
<g>
	<g>
		<g id="Nuva_Logo_2_">
			<path fill="#FFFFFF" d="M89.996,215.779c-1.614,0.498-4.075,0.126-5.47-0.825L9.562,163.811c-1.395-0.952-2.64-3.108-2.766-4.792
				L0.012,68.54c-0.126-1.684,0.783-4.002,2.021-5.15L68.526,1.68c1.238-1.149,3.617-1.883,5.286-1.631l89.696,13.515
				c1.67,0.252,3.727,1.654,4.571,3.116l45.369,78.599c0.844,1.463,1.03,3.945,0.414,5.517l-33.129,84.482
				c-0.616,1.572-2.441,3.265-4.054,3.763L89.996,215.779L89.996,215.779z M135.233,142.477c1.614-0.498,3.438-2.191,4.054-3.763
				l14.228-36.281c0.616-1.572,0.43-4.055-0.414-5.517L133.617,63.16c-0.844-1.463-2.901-2.865-4.571-3.116L90.527,54.24
				c-1.67-0.252-4.048,0.483-5.286,1.631L56.686,82.373c-1.238,1.149-2.147,3.466-2.021,5.15l2.914,38.857
				c0.126,1.684,1.371,3.84,2.766,4.792l32.194,21.963c1.395,0.952,3.856,1.323,5.47,0.825L135.233,142.477L135.233,142.477z"/>
		</g>
	</g>
</g>
</svg>
