<?xml version="1.0" encoding="utf-8"?>
<!-- Generator: Adobe Illustrator 16.0.0, SVG Export Plug-In . SVG Version: 6.00 Build 0)  -->
<!DOCTYPE svg PUBLIC "-//W3C//DTD SVG 1.1//EN" "http://www.w3.org/Graphics/SVG/1.1/DTD/svg11.dtd">
<svg version="1.1" id="Layer_1" xmlns="http://www.w3.org/2000/svg" xmlns:xlink="http://www.w3.org/1999/xlink" x="0px" y="0px"
	 width="60px" height="60px" viewBox="0 0 60 60" enable-background="new 0 0 60 60" xml:space="preserve">
<circle fill="#064E89" cx="30.884" cy="30.248" r="22.557"/>
<g>
	<g>
		<path fill="#FFFFFF" d="M30.884,17.515c-5.15,0-9.341,4.189-9.341,9.34c0,6.661,7.993,15.322,8.334,15.688
			c0.26,0.279,0.625,0.439,1.007,0.439c0.382,0,0.746-0.159,1.007-0.439c0.341-0.365,8.334-9.027,8.334-15.688
			C40.225,21.704,36.035,17.515,30.884,17.515z M27.197,26.562c0-2.036,1.651-3.688,3.687-3.688s3.687,1.649,3.687,3.688
			c0,2.036-1.65,3.688-3.687,3.688C28.848,30.248,27.197,28.598,27.197,26.562z"/>
	</g>
</g>
</svg>
