<?xml version="1.0" encoding="utf-8"?>
<!-- Generator: Adobe Illustrator 16.0.0, SVG Export Plug-In . SVG Version: 6.00 Build 0)  -->
<!DOCTYPE svg PUBLIC "-//W3C//DTD SVG 1.1//EN" "http://www.w3.org/Graphics/SVG/1.1/DTD/svg11.dtd">
<svg version="1.1" id="Layer_1" xmlns="http://www.w3.org/2000/svg" xmlns:xlink="http://www.w3.org/1999/xlink" x="0px" y="0px"
	 width="60px" height="60px" viewBox="0 0 60 60" enable-background="new 0 0 60 60" xml:space="preserve">
<g>
	<path fill="#064E89" d="M47.169,24.336l5.452-2.885c0.458-0.241,0.745-0.729,0.745-1.256c0-0.531-0.286-1.018-0.745-1.258
		L30.556,7.269c-0.802-0.425-1.676-0.636-2.552-0.636c-0.877,0-1.749,0.211-2.552,0.636L3.382,18.937
		c-0.458,0.241-0.745,0.728-0.745,1.259c0,0.53,0.287,1.016,0.745,1.256l22.072,11.667c0.801,0.423,1.674,0.634,2.548,0.634
		c0.377,0,1.547-0.254,2.714-0.546c-0.399,1.19-0.631,2.452-0.685,3.764c-0.953,0.36-1.701,0.216-2.029,0.216
		c-1.407,0-2.813-0.349-4.064-1.011l-13.593-7.187l-6.963,3.683c-0.458,0.244-0.745,0.729-0.745,1.259
		c0,0.531,0.287,1.017,0.745,1.257l22.072,11.666c1.602,0.846,3.501,0.846,5.1,0l2.153-1.158c2.493,3.354,6.472,5.536,10.975,5.536
		c7.556,0,13.681-6.126,13.681-13.682C57.363,31.203,53.033,25.879,47.169,24.336z M43.682,47.811
		c-5.66,0-10.262-4.602-10.262-10.261s4.602-10.262,10.262-10.262c5.659,0,10.261,4.603,10.261,10.262S49.341,47.811,43.682,47.811z
		"/>
	<path fill="#064E89" d="M43.682,32.419c-4.724,0-8.551,5.131-8.551,5.131s3.827,5.131,8.551,5.131c4.723,0,8.55-5.131,8.55-5.131
		S48.405,32.419,43.682,32.419z M43.682,40.971c-1.888,0-3.421-1.532-3.421-3.421c0-1.888,1.533-3.42,3.421-3.42
		s3.42,1.532,3.42,3.42C47.102,39.438,45.57,40.971,43.682,40.971z"/>
	<circle fill="#064E89" cx="43.682" cy="37.55" r="1.71"/>
</g>
</svg>
