<?xml version="1.0" encoding="utf-8"?>
<!-- Generator: Adobe Illustrator 16.0.0, SVG Export Plug-In . SVG Version: 6.00 Build 0)  -->
<!DOCTYPE svg PUBLIC "-//W3C//DTD SVG 1.1//EN" "http://www.w3.org/Graphics/SVG/1.1/DTD/svg11.dtd">
<svg version="1.1" id="Layer_1" xmlns="http://www.w3.org/2000/svg" xmlns:xlink="http://www.w3.org/1999/xlink" x="0px" y="0px"
	 width="60px" height="60px" viewBox="0 0 60 60" enable-background="new 0 0 60 60" xml:space="preserve">
<g>
	<circle fill="#FFFFFF" cx="29.731" cy="30.615" r="17.615"/>
	<path fill="#064E89" d="M29.696,8.343c-12.11,0-21.907,9.796-21.907,21.905s9.797,21.907,21.907,21.907
		c12.108,0,21.906-9.798,21.906-21.907S41.805,8.343,29.696,8.343z M35.416,43.026c-1.399,0.609-2.921,0.426-4.077-0.364
		c-0.182-0.061-0.304-0.183-0.425-0.305c-0.183-0.122-4.199-3.713-6.816-9.554c-2.616-5.843-2.616-11.257-2.616-11.439
		c0-0.122,0-0.243,0-0.306c0.122-1.46,0.974-2.858,2.434-3.528c2.069-0.914,4.565,0,5.477,2.068c0.914,2.069,0,4.563-2.068,5.478
		c-0.061,0.06-0.122,0.06-0.244,0.06c0.305,1.583,0.853,3.53,1.704,5.538c0.914,2.007,2.009,3.652,2.982,4.93
		c0.061-0.061,0.121-0.061,0.182-0.123c2.07-0.912,4.564,0,5.478,2.07C38.458,39.618,37.545,42.114,35.416,43.026z"/>
</g>
</svg>
