<?xml version="1.0" encoding="utf-8"?>
<!-- Generator: Adobe Illustrator 16.0.0, SVG Export Plug-In . SVG Version: 6.00 Build 0)  -->
<!DOCTYPE svg PUBLIC "-//W3C//DTD SVG 1.1//EN" "http://www.w3.org/Graphics/SVG/1.1/DTD/svg11.dtd">
<svg version="1.1" id="Layer_1" xmlns="http://www.w3.org/2000/svg" xmlns:xlink="http://www.w3.org/1999/xlink" x="0px" y="0px"
	 width="60px" height="60px" viewBox="0 0 60 60" enable-background="new 0 0 60 60" xml:space="preserve">
<g sketch:type="MSPage">
	<g sketch:type="MSArtboardGroup">
		
			<g transform="translate(17.149322, 16.985024) rotate(-22.000000) translate(-17.149322, -16.985024) translate(1.649322, 7.485024)" sketch:type="MSLayerGroup">
			<path sketch:type="MSShapeGroup" fill="#064E89" d="M-3.664,23.873c0,11.044,12.143,19.719,26.889,19.718
				c14.746,0,26.889-8.673,26.89-19.718c0-7.346-12.14-12.548-26.889-12.549C8.475,11.325-3.665,16.527-3.664,23.873L-3.664,23.873z
				 M-0.079,23.872c0-4.534,10.332-8.963,23.304-8.962c12.971,0,23.304,4.427,23.303,8.962c0,8.756-10.329,16.134-23.304,16.134
				C10.249,40.006-0.08,32.629-0.079,23.872L-0.079,23.872z"/>
			<path sketch:type="MSShapeGroup" fill="#064E89" d="M23.224,36.422c14.75,0,26.89-5.203,26.89-12.549
				c0-7.346-12.14-12.548-26.889-12.549C8.475,11.325-3.665,16.527-3.664,23.873C-3.664,31.218,8.475,36.421,23.224,36.422
				L23.224,36.422z M23.225,32.836c-12.972,0-23.304-4.428-23.304-8.964c0-4.534,10.332-8.963,23.304-8.962
				c12.971,0,23.304,4.427,23.303,8.962C46.528,28.408,36.195,32.836,23.225,32.836L23.225,32.836z"/>
			<path sketch:type="MSShapeGroup" fill="#064E89" d="M3.497,24.089c1.319-1.005,2.987-1.859,4.921-2.566
				c1.867-0.683,3.876-1.193,5.886-1.555c0.704-0.127,1.358-0.226,1.943-0.3c0.348-0.044,0.594-0.07,0.719-0.081l-0.156-1.785
				c-0.148,0.012-0.417,0.04-0.789,0.088c-0.614,0.077-1.299,0.181-2.035,0.314c-2.105,0.379-4.211,0.913-6.185,1.634
				c-2.092,0.765-3.914,1.698-5.392,2.825L3.497,24.089L3.497,24.089z"/>
		</g>
	</g>
</g>
</svg>
